<svg id="Layer_1" data-name="Layer 1" xmlns="http://www.w3.org/2000/svg" viewBox="0 0 118.57 15.97"><defs><style>.cls-1{fill:#b1bc37;}</style></defs><title>Untitled-1</title><path class="cls-1" d="M0,0.43H2.36l3.84,6,3.83-6h2.36V13H10.17V4l-4,5.94H6.12L2.18,4v9H0V0.43Z"/><path class="cls-1" d="M22,3.53h2.27l-3.78,9.78C19.69,15.25,18.85,16,17.32,16a4.49,4.49,0,0,1-2.25-.58l0.74-1.62a2.68,2.68,0,0,0,1.28.36,1.39,1.39,0,0,0,1.35-1.08l-4-9.52h2.34l2.68,7.06Z"/><path class="cls-1" d="M25.79,6.77v0A6.42,6.42,0,0,1,32.29.22a6.81,6.81,0,0,1,4.84,1.71L35.73,3.6A4.94,4.94,0,0,0,32.2,2.25,4.26,4.26,0,0,0,28.12,6.7v0a4.21,4.21,0,0,0,4.29,4.5,5.15,5.15,0,0,0,3-1V7.92H32.22V6h5.37v5.29a8,8,0,0,1-5.26,2A6.25,6.25,0,0,1,25.79,6.77Z"/><path class="cls-1" d="M40.25,0h2.34V2.07H40.25V0Zm0.09,3.53h2.18V13H40.34V3.53Z"/><path class="cls-1" d="M45.36,3.53h2.18V5a3.45,3.45,0,0,1,3-1.66c2.14,0,3.38,1.44,3.38,3.64V13H51.72V7.63c0-1.48-.74-2.32-2-2.32a2.11,2.11,0,0,0-2.14,2.36V13H45.36V3.53Z"/><path class="cls-1" d="M56.52,3.53H58.7V5a3.45,3.45,0,0,1,3-1.66c2.14,0,3.39,1.44,3.39,3.64V13H62.88V7.63c0-1.48-.74-2.32-2-2.32A2.11,2.11,0,0,0,58.7,7.67V13H56.52V3.53Z"/><path class="cls-1" d="M67.72,0h2.34V2.07H67.72V0Zm0.09,3.53H70V13H67.81V3.53Z"/><path class="cls-1" d="M72.31,8.32v0a4.72,4.72,0,0,1,4.65-5c3,0,4.56,2.38,4.56,5.11,0,0.2,0,.4,0,0.61h-7a2.65,2.65,0,0,0,2.74,2.41,3.45,3.45,0,0,0,2.57-1.13l1.28,1.13a4.81,4.81,0,0,1-3.89,1.78A4.74,4.74,0,0,1,72.31,8.32Zm7-.7a2.47,2.47,0,0,0-2.41-2.5,2.57,2.57,0,0,0-2.47,2.5h4.88Z"/><path class="cls-1" d="M84,0.43h2.36l3.83,6,3.83-6h2.36V13H94.12V4l-4,5.94H90.07L86.13,4v9H84V0.43Z"/><path class="cls-1" d="M98.69,10.3v0c0-2.05,1.6-3.06,3.93-3.06a7.94,7.94,0,0,1,2.56.4V7.36c0-1.35-.83-2.07-2.36-2.07a6.62,6.62,0,0,0-2.72.59L99.52,4.18a8.11,8.11,0,0,1,3.58-.77,4.26,4.26,0,0,1,3.15,1.06,3.94,3.94,0,0,1,1,2.93V13h-2.12V11.85a3.86,3.86,0,0,1-3.1,1.39C100.28,13.23,98.69,12.21,98.69,10.3Zm6.52-.68V9a6.05,6.05,0,0,0-2.16-.38c-1.4,0-2.23.59-2.23,1.58v0a1.6,1.6,0,0,0,1.85,1.44C104.11,11.65,105.21,10.82,105.21,9.62Z"/><path class="cls-1" d="M109.37,8.32v0a4.72,4.72,0,0,1,4.65-5c3,0,4.56,2.38,4.56,5.11,0,0.2,0,.4,0,0.61h-7a2.65,2.65,0,0,0,2.74,2.41,3.45,3.45,0,0,0,2.57-1.13l1.28,1.13a4.81,4.81,0,0,1-3.89,1.78A4.74,4.74,0,0,1,109.37,8.32Zm7-.7A2.47,2.47,0,0,0,114,5.11a2.57,2.57,0,0,0-2.47,2.5h4.88Z"/></svg>